<svg width="512" height="512" viewBox="0 0 32 32" xmlns="http://www.w3.org/2000/svg">
    <!-- Metà sinistra: Tazzina da caffè -->
    <defs>
        <clipPath id="leftHalf">
            <rect x="0" y="0" width="16" height="32"/>
        </clipPath>
        <clipPath id="rightHalf">
            <rect x="16" y="0" width="16" height="32"/>
        </clipPath>
    </defs>
    
    <!-- Tazzina (metà sinistra) -->
    <g clip-path="url(#leftHalf)">
        <!-- Corpo tazzina -->
        <path d="M4 8 L12 8 C12 8 12 20 12 22 C12 24 10 26 8 26 C6 26 4 24 4 22 Z" fill="#8B4513" stroke="#654321" stroke-width="1"/>
        <!-- Manico -->
        <path d="M12 12 C14 12 15 13 15 15 C15 17 14 18 12 18" fill="none" stroke="#654321" stroke-width="1.5"/>
        <!-- Caffè -->
        <ellipse cx="8" cy="10" rx="3.5" ry="1" fill="#2F1B14"/>
        <!-- Vapore -->
        <path d="M6 6 C6 5 6 4 6 4" stroke="#e0e0e0" stroke-width="1" stroke-linecap="round"/>
        <path d="M8 5 C8 4 8 3 8 3" stroke="#e0e0e0" stroke-width="1" stroke-linecap="round"/>
        <path d="M10 6 C10 5 10 4 10 4" stroke="#e0e0e0" stroke-width="1" stroke-linecap="round"/>
    </g>
    
    <!-- Calcolatrice (metà destra) -->
    <g clip-path="url(#rightHalf)">
        <!-- Corpo calcolatrice -->
        <rect x="17" y="6" width="12" height="20" rx="2" fill="#2c3e50" stroke="#1a252f" stroke-width="1"/>
        <!-- Display -->
        <rect x="18.5" y="8" width="9" height="3" rx="0.5" fill="#000" stroke="#333" stroke-width="0.5"/>
        <text x="27.5" y="10.5" font-family="monospace" font-size="2" fill="#00ff00" text-anchor="end">123</text>
        
        <!-- Pulsanti -->
        <!-- Riga 1 -->
        <rect x="19" y="12.5" width="1.8" height="1.8" rx="0.3" fill="#95a5a6"/>
        <rect x="21.1" y="12.5" width="1.8" height="1.8" rx="0.3" fill="#95a5a6"/>
        <rect x="23.2" y="12.5" width="1.8" height="1.8" rx="0.3" fill="#95a5a6"/>
        <rect x="25.3" y="12.5" width="1.8" height="1.8" rx="0.3" fill="#e74c3c"/>
        
        <!-- Riga 2 -->
        <rect x="19" y="14.6" width="1.8" height="1.8" rx="0.3" fill="#ecf0f1"/>
        <rect x="21.1" y="14.6" width="1.8" height="1.8" rx="0.3" fill="#ecf0f1"/>
        <rect x="23.2" y="14.6" width="1.8" height="1.8" rx="0.3" fill="#ecf0f1"/>
        <rect x="25.3" y="14.6" width="1.8" height="1.8" rx="0.3" fill="#3498db"/>
        
        <!-- Riga 3 -->
        <rect x="19" y="16.7" width="1.8" height="1.8" rx="0.3" fill="#ecf0f1"/>
        <rect x="21.1" y="16.7" width="1.8" height="1.8" rx="0.3" fill="#ecf0f1"/>
        <rect x="23.2" y="16.7" width="1.8" height="1.8" rx="0.3" fill="#ecf0f1"/>
        <rect x="25.3" y="16.7" width="1.8" height="1.8" rx="0.3" fill="#3498db"/>
        
        <!-- Riga 4 -->
        <rect x="19" y="18.8" width="1.8" height="1.8" rx="0.3" fill="#ecf0f1"/>
        <rect x="21.1" y="18.8" width="1.8" height="1.8" rx="0.3" fill="#ecf0f1"/>
        <rect x="23.2" y="18.8" width="1.8" height="1.8" rx="0.3" fill="#ecf0f1"/>
        <rect x="25.3" y="18.8" width="1.8" height="1.8" rx="0.3" fill="#27ae60"/>
        
        <!-- Riga 5 -->
        <rect x="19" y="20.9" width="4" height="1.8" rx="0.3" fill="#ecf0f1"/>
        <rect x="23.2" y="20.9" width="1.8" height="1.8" rx="0.3" fill="#ecf0f1"/>
        <rect x="25.3" y="20.9" width="1.8" height="1.8" rx="0.3" fill="#27ae60"/>
    </g>
</svg>